<?xml version="1.0" encoding="utf-8"?><svg xmlns="http://www.w3.org/2000/svg" xmlns:xlink="http://www.w3.org/1999/xlink" width="1920" height="794" preserveAspectRatio="xMidYMid" viewBox="0 0 1920 1080" style="z-index:1;margin-right:-2px;display:block;background-repeat-y:initial;background-repeat-x:initial;background-color:rgb(241, 242, 243);animation-play-state:paused" ><g transform="" style="animation-play-state:paused" ><linearGradient id="lg-0.7413851736862955" x1="0" x2="1" y1="0" y2="0" style="animation-play-state:paused" ><stop stop-color="#ff6584" offset="0" style="animation-play-state:paused" ></stop>

  
<stop stop-color="#ff6a00" offset="1" style="animation-play-state:paused" ></stop></linearGradient>
<path d="M 0 0 L 0 690.955 Q 192 614.26 384 577.639 T 768 625.617 T 1152 551.006 T 1536 395.849 T 1920 391.577 L 1920 0 Z" fill="url(#lg-0.7413851736862955)" opacity="0.4" style="opacity:0.4;animation-play-state:paused" ></path>
<path d="M 0 0 L 0 751.947 Q 192 614.505 384 583.794 T 768 558.891 T 1152 533.397 T 1536 439.866 T 1920 334.411 L 1920 0 Z" fill="url(#lg-0.7413851736862955)" opacity="0.4" style="opacity:0.4;animation-play-state:paused" ></path>
<path d="M 0 0 L 0 778.838 Q 192 708.326 384 666.789 T 768 584.19 T 1152 525.107 T 1536 384.599 T 1920 328.565 L 1920 0 Z" fill="url(#lg-0.7413851736862955)" opacity="0.4" style="opacity:0.4;animation-play-state:paused" ></path>
<path d="M 0 0 L 0 694.91 Q 192 715.103 384 689.014 T 768 540.979 T 1152 538.552 T 1536 461.907 T 1920 357.924 L 1920 0 Z" fill="url(#lg-0.7413851736862955)" opacity="0.4" style="opacity:0.4;animation-play-state:paused" ></path>
<path d="M 0 0 L 0 692.657 Q 192 714.415 384 685.781 T 768 573.474 T 1152 452.746 T 1536 390.106 T 1920 260.177 L 1920 0 Z" fill="url(#lg-0.7413851736862955)" opacity="0.4" style="opacity:0.4;animation-play-state:paused" ></path></g></svg>